<svg xmlns="http://www.w3.org/2000/svg" xmlns:xlink="http://www.w3.org/1999/xlink" width="87.72" height="87.588" viewBox="0 0 87.72 87.588">
  <defs>
    <filter id="Ellipse_8" x="0" y="0" width="87.72" height="87.588" filterUnits="userSpaceOnUse">
      <feOffset dy="3" input="SourceAlpha"/>
      <feGaussianBlur stdDeviation="3" result="blur"/>
      <feFlood flood-opacity="0.161"/>
      <feComposite operator="in" in2="blur"/>
      <feComposite in="SourceGraphic"/>
    </filter>
  </defs>
  <g id="call_us-m29" data-name="call us-m29" transform="translate(-271 -772)">
    <g transform="matrix(1, 0, 0, 1, 271, 772)" filter="url(#Ellipse_8)">
      <ellipse id="Ellipse_8-2" data-name="Ellipse 8" cx="34.86" cy="34.794" rx="34.86" ry="34.794" transform="translate(9 6)" fill="#18c5ea"/>
    </g>
    <g id="_9.3" data-name="9.3" transform="translate(295.77 794.419)">
      <g id="_9" data-name="9" transform="translate(0 0)">
        <g id="phone-call" transform="translate(0 0)">
          <path id="Shape" d="M30.449,37.885A16.271,16.271,0,0,1,24.875,36.7a41.815,41.815,0,0,1-14.062-9.628A41.846,41.846,0,0,1,1.183,13.008c-1.574-4.173-1.578-7.6-.009-9.166.226-.226.455-.468.692-.717C3.3,1.62,4.914-.074,7.057,0c1.477.061,2.908.979,4.373,2.8,4.33,5.385,2.378,7.3.119,9.529l-.4.4c-.37.37-1.068,2.081,5.428,8.577a36.022,36.022,0,0,0,5.374,4.612c.91.591,2.537,1.486,3.2.818l.4-.405c2.222-2.254,4.141-4.2,9.523.126,1.823,1.465,2.74,2.9,2.8,4.375.088,2.142-1.618,3.763-3.125,5.193-.248.237-.491.466-.716.691A4.964,4.964,0,0,1,30.449,37.885ZM6.9,1.274C5.382,1.274,4.007,2.722,2.79,4c-.245.257-.482.507-.715.74-1.169,1.167-1.05,4.234.3,7.816a40.564,40.564,0,0,0,9.34,13.613,40.535,40.535,0,0,0,13.61,9.337c3.582,1.353,6.649,1.468,7.815.3.233-.233.483-.47.74-.714,1.309-1.244,2.793-2.653,2.728-4.217-.045-1.074-.827-2.23-2.326-3.434-4.484-3.606-5.738-2.333-7.818-.224l-.408.412c-.994,1-2.608.775-4.8-.65a37.208,37.208,0,0,1-5.58-4.78c-5.391-5.39-7.116-8.689-5.428-10.38l.406-.4c2.114-2.08,3.39-3.335-.218-7.821C9.232,2.1,8.078,1.321,7,1.275Z" transform="translate(0)" fill="#fff" stroke="#fff" stroke-width="1"/>
        </g>
      </g>
    </g>
  </g>
</svg>
