<?xml version="1.0" encoding="UTF-8"?>
<svg width="1440px" height="645px" viewBox="0 0 1440 645" version="1.1" xmlns="http://www.w3.org/2000/svg" xmlns:xlink="http://www.w3.org/1999/xlink">
    <!-- Generator: Sketch 52.6 (67491) - http://www.bohemiancoding.com/sketch -->
    <title>Path 15</title>
    <desc>Created with Sketch.</desc>
    <g id="website-" stroke="none" stroke-width="1" fill="none" fill-rule="evenodd" stroke-dasharray="10,15" stroke-linecap="round">
        <g id="20" transform="translate(0.000000, -237.000000)" stroke="#ABF4FF" stroke-width="5">
            <path d="M0,258.557025 C90.7187666,238.03607 142,240.054544 248,240.054544 C354,240.054544 446.773817,259.67086 541,285.560645 C632,310.563998 652.542229,343.434706 681,373.572445 C709.457771,403.710184 760.113199,508.33245 763,531.790855 C771,596.799571 771.741581,625.375308 763,680.613612 C752,750.122931 713.978331,821.390353 696,840.655434 C682,855.657446 649.717442,871.184762 627,875.63976 C576,885.641101 519,872.639358 472,845.635737 C440.666667,827.633323 422.333333,786.967993 417,723.639745 C408.203757,637.241314 406.537091,577.233269 412,543.615609 C421.268241,486.580694 440.647093,412.045971 464,386.594556 C530,314.663753 537,303.583426 714,292.581951 C891,281.580476 1121,377.572982 1187,419.578614 C1231,447.582368 1334,522.263039 1496,643.620625" id="Path-15" transform="translate(748.000000, 559.500000) scale(1, -1) translate(-748.000000, -559.500000) "></path>
        </g>
    </g>
</svg>