<?xml version="1.0" encoding="UTF-8"?>
<svg width="1440px" height="665px" viewBox="0 0 1440 665" version="1.1" xmlns="http://www.w3.org/2000/svg" xmlns:xlink="http://www.w3.org/1999/xlink">
    <!-- Generator: Sketch 52.6 (67491) - http://www.bohemiancoding.com/sketch -->
    <title>Path 15</title>
    <desc>Created with Sketch.</desc>
    <g id="website-" stroke="none" stroke-width="1" fill="none" fill-rule="evenodd" stroke-dasharray="10,15" stroke-linecap="round">
        <g id="21" transform="translate(0.000000, -83.000000)" stroke="#ABF4FF" stroke-width="5">
            <path d="M1440,626.329843 C1440,635.178027 1297.95117,732.761094 1076,744.410007 C1023.1561,747.183473 920.156096,740.178717 767,723.39574 C594.176922,678.628498 474.176922,611.249422 407,521.258512 C351.572008,447.006591 305.996994,275.378406 331,215.05063 C392.600796,66.4189408 469.511264,86.9636736 574,86.9636736 C597.356561,86.9636736 685.564444,120.946339 701,138.999 C747.489606,193.370938 764.626352,254.302277 742.740478,352.143701 C702.2031,533.367199 486,567.941913 448,562.286365 C365.183302,549.960738 341.22742,547.125116 288,523.25987 C242.394118,502.811846 164.30716,463.165546 133,431.19737 C106.870087,404.515752 62.5367535,364.488578 0,311.115848" id="Path-15" transform="translate(720.000000, 415.500000) scale(1, -1) translate(-720.000000, -415.500000) "></path>
        </g>
    </g>
</svg>