<?xml version="1.0" encoding="UTF-8"?>
<svg width="1440px" height="513px" viewBox="0 0 1440 513" version="1.1" xmlns="http://www.w3.org/2000/svg" xmlns:xlink="http://www.w3.org/1999/xlink">
    <!-- Generator: Sketch 52.6 (67491) - http://www.bohemiancoding.com/sketch -->
    <title>Path 15</title>
    <desc>Created with Sketch.</desc>
    <g id="website-" stroke="none" stroke-width="1" fill="none" fill-rule="evenodd" stroke-dasharray="10,15" stroke-linecap="round">
        <g id="22" transform="translate(0.000000, -202.000000)" stroke="#ABF4FF" stroke-width="5">
            <path d="M1440,711.746043 C1440,720.594197 1233.8741,495.804232 1164,417.136583 C1094.1259,338.468934 992.382225,252.332179 889,220.003391 C820.078516,198.450865 730.41185,200.118659 620,225.006771 C483.434973,248.863944 405.434973,304.234688 386,391.119004 C365.229152,483.975368 385.02594,590.009567 452,638 C515.735711,683.669986 567.781648,690.244478 604.428571,690 C634.4533,689.7997 730.598327,663.594228 761,607.265043 C806.697709,522.594877 775.741724,385.689035 735,344.087228 C715.155606,323.823907 641.399615,217.027568 386,225.006771 C347.062725,226.223251 251.853658,241.990071 135,301.058155 C105.003337,316.221099 60.0033365,348.04607 0,396.53307" id="Path-15" transform="translate(720.000000, 458.500000) scale(-1, -1) translate(-720.000000, -458.500000) "></path>
        </g>
    </g>
</svg>