<?xml version="1.0" encoding="UTF-8"?>
<svg width="1438px" height="254px" viewBox="0 0 1438 254" version="1.1" xmlns="http://www.w3.org/2000/svg" xmlns:xlink="http://www.w3.org/1999/xlink">
    <!-- Generator: Sketch 52.6 (67491) - http://www.bohemiancoding.com/sketch -->
    <title>gift image desktop</title>
    <desc>Created with Sketch.</desc>
    <g id="Page-1" stroke="none" stroke-width="1" fill="none" fill-rule="evenodd" stroke-dasharray="10,10" stroke-linecap="round">
        <g id="Desktop-HD" transform="translate(0.000000, -292.000000)" stroke="#ABF4FF" stroke-width="5">
            <g id="gift-image-desktop" transform="translate(-86.000000, 295.000000)">
                <path d="M701,98 L701,129 L909,129 L909,98 C909,93.581722 905.418278,90 901,90 L709,90 C704.581722,90 701,93.581722 701,98 Z" id="Path-6" stroke-linejoin="round"></path>
                <path d="M713,131.969697 L713,227 L898,227 L898,129 L713,129 L713,131.969697 Z" id="Path-7"></path>
                <path d="M0,176.050524 C14.6666667,143.648805 54.6666667,145.631964 120,182 C195.26846,223.898461 317.963228,190.922843 412,176.050524 C440.399685,171.558992 479,176.050524 490,185 C499.048125,192.361453 514.187976,212.519956 511,227 C509.064585,235.790811 492.357585,249.044169 483,243 C473.931359,237.142463 472.99682,221.521318 487,212 C511.246836,195.513613 564.114966,201.683395 582,209 C626,227 699,248 752,248 C771.311465,248 788.978132,241 805,227 L805,90 C817.124937,35.941629 837.124937,17.2749624 865,34 C880,43 878.921536,62.0784641 868,73 C862,79 864,78 854,84 C846.501791,88.4989252 840.584631,89.6268138 830,90 C825.776799,90.148899 821.099404,90.0566583 815,90 C812.04417,89.9725429 808.523139,90.2445221 805,90 C800.489609,89.6869581 790.887269,90.4935207 782,90 C777.730925,89.7629332 770.665366,88.1478592 770,88 C764.909794,86.868843 753.942401,83.6297387 747,77 C740.601635,70.8897965 737,60.5622452 737,55 C737,43.4025658 741.525611,39.2972272 748,34 C754.474389,28.7027728 763.538374,26.5344101 770,28 C776.597207,29.4963416 783.295265,34.6320589 787,38 C798,48 804,73 805,90 C807.840522,138.288882 857.840522,170.955549 955,188 C1051.40166,196.58276 1119.74418,198.36664 1160.02753,193.35164 C1299,176.050524 1374,122 1393,114 C1444.76754,92.2031394 1456,30 1452,15 C1448,3.5249581e-15 1398.4,-14 1393,28 C1387.6,70 1394,120 1553,102" id="Path-8" stroke-linejoin="round"></path>
            </g>
        </g>
    </g>
</svg>