<svg xmlns="http://www.w3.org/2000/svg" width="97.5" height="97.5" viewBox="0 0 97.5 97.5">
  <g id="_002_on4" data-name="002 on4" transform="translate(-92 -134)">
    <g id="Group_1406" data-name="Group 1406" transform="translate(8 77)">
      <circle id="Ellipse_3" data-name="Ellipse 3" cx="48.75" cy="48.75" r="48.75" transform="translate(84 57)" fill="#ededed"/>
      <circle id="Ellipse_2" data-name="Ellipse 2" cx="40.721" cy="40.721" r="40.721" transform="translate(92.029 65.029)" fill="#fff"/>
      <path id="Path_955" data-name="Path 955" d="M8480.818,3066.02s29.942-.324,41.237,27.156a48.551,48.551,0,0,1,2.779,12.347s.849,9.713-1.384,17.523a44.882,44.882,0,0,1-10.4,17.494,54.409,54.409,0,0,1-5.492,5.187,39.771,39.771,0,0,1-9.259,5.387,50.656,50.656,0,0,1-7.932,2.728,34.425,34.425,0,0,1-8.971.948" transform="translate(-8347.703 -3004.409)" fill="none" stroke="#17c4e9" stroke-linecap="round" stroke-width="8"/>
    </g>
    <text id="_02" data-name="02" transform="translate(114 199)" fill="#d1d1d1" font-size="50" font-family="Avenir-Black, Avenir" font-weight="800" letter-spacing="-0.1em"><tspan x="0" y="0">02</tspan></text>
  </g>
</svg>
