<svg xmlns="http://www.w3.org/2000/svg" viewBox="0 0 1440 2548" width="3701" height="6548">
	<style>
		tspan { white-space:pre }
		.shp0 { fill: #e0f3ff;stroke: #e0f3ff } 
	</style>
	<g id="website-">
		<g id="1">
			<path id="Path-14" fill-rule="evenodd" class="shp0" d="M-30.7 107.04C-62.36 48.68 8.96 19.5 183.26 19.5C444.71 19.5 591.18 107.04 930.11 107.04C1156.06 107.04 1339.03 64.36 1479 -21L1474 2302.86C1398.18 2352.69 1343.81 2386.02 1310.89 2402.87C1238.81 2439.75 1180.42 2461.91 1139.07 2476.87C979.3 2534.68 838.74 2544.86 729.15 2546.88C619.81 2548.89 446.94 2526.24 285.24 2467.87C248.27 2454.53 197.89 2434.9 142.27 2404.87C108.18 2386.47 50.52 2350.13 -30.7 2295.86L-30.7 107.04Z" />
		</g>
	</g>
</svg>