<?xml version="1.0" encoding="UTF-8"?>
<svg width="1440px" height="2548px" viewBox="0 0 1440 2548" version="1.1" xmlns="http://www.w3.org/2000/svg" xmlns:xlink="http://www.w3.org/1999/xlink">
    <!-- Generator: Sketch 52.6 (67491) - http://www.bohemiancoding.com/sketch -->
    <title>Path 14</title>
    <desc>Created with Sketch.</desc>
    <g id="website-" stroke="none" stroke-width="1" fill="none" fill-rule="evenodd">
        <g id="1" transform="translate(0.000000, -998.000000)" fill="#E0F3FF" stroke="#E0F3FF">
            <path d="M-30.6996723,1105.04291 C-62.3600407,1046.6815 8.95910493,1017.50079 183.257765,1017.50079 C444.705754,1017.50079 591.176617,1105.04291 930.109192,1105.04291 C1156.06424,1105.04291 1339.02784,1062.36194 1479,977 L1474.00099,3300.85998 C1398.1813,3350.68543 1343.81086,3384.0212 1310.88966,3400.86728 C1238.8077,3437.75229 1180.42237,3459.90982 1139.06762,3474.87269 C979.29711,3532.68044 838.744368,3542.86263 729.149169,3544.8778 C619.812039,3546.88822 446.938139,3524.24154 285.237478,3465.87203 C248.269109,3452.52746 197.893775,3432.89674 142.265919,3402.86743 C108.178097,3384.46597 50.5229002,3348.12998 -30.6996723,3293.85947 L-30.6996723,1105.04291 Z" id="Path-14"></path>
        </g>
    </g>
</svg>