<?xml version="1.0" encoding="UTF-8"?>
<svg width="1389px" height="2446px" viewBox="0 0 1389 2446" version="1.1" xmlns="http://www.w3.org/2000/svg" xmlns:xlink="http://www.w3.org/1999/xlink">
    <!-- Generator: Sketch 52.6 (67491) - http://www.bohemiancoding.com/sketch -->
    <title>Path 11</title>
    <desc>Created with Sketch.</desc>
    <g id="website-" stroke="none" stroke-width="1" fill="none" fill-rule="evenodd" stroke-dasharray="10,15" stroke-linecap="round">
        <g id="1" transform="translate(-25.000000, -3803.000000)" stroke="#ABF4FF" stroke-width="5">
            <path d="M414,3812.80325 C396.379753,3808.05371 366.755964,3797.86303 281.739462,3818.12679 C261.713225,3822.90005 186.502587,3841.98507 137.738941,3885.14849 C89.969461,3927.43193 68.58421,3993.26539 53.7386368,4049.20163 C23.7385282,4162.23824 68.7386911,4288.27906 210.739205,4355.30076 C320.78308,4407.23951 568.740501,4469.3377 768.741225,4469.3377 C950.262353,4469.3377 1058.71779,4445.43482 1190.74275,4491.34482 C1421.89034,4571.72346 1410.74355,4797.33632 1410.74355,4850.46114 C1410.74355,4862.01638 1426.47064,4994.68094 1211.60402,5042.79858 C1003.81487,5089.33128 566.052036,5051.42429 517.38075,5058.80109 C462.71686,5067.08615 242.78481,5040.54618 157.264934,5150.81552 C87.9019735,5240.25214 83.6729126,5242.44135 53.7386368,5336 C23.804361,5429.55865 35.6753839,5437.17012 30.2240769,5547.8778 C23.782071,5678.70505 31.2491635,5861.59505 53.7386368,5904.9338 C100.666559,5995.36711 101.161038,5989.94714 210.739205,6012.95074 C320.317373,6035.95435 564.324332,6043.43388 577.400052,6042.95545 C768.741225,6035.95435 850.755975,6021.27656 969.526163,6042.95545 C1098.31684,6066.46336 1217.26529,6095.86316 1211.60402,6156 C1205.20134,6224.01245 1150.66667,6253.67911 1048,6245 L1015,6245" id="Path-11"></path>
        </g>
    </g>
</svg>