<?xml version="1.0" encoding="UTF-8"?>
<svg width="22px" height="23px" viewBox="0 0 22 23" version="1.1" xmlns="http://www.w3.org/2000/svg" xmlns:xlink="http://www.w3.org/1999/xlink">
    <!-- Generator: Sketch 52.6 (67491) - http://www.bohemiancoding.com/sketch -->
    <title>google-play</title>
    <desc>Created with Sketch.</desc>
    <g id="website-" stroke="none" stroke-width="1" fill="none" fill-rule="evenodd">
        <g id="11" transform="translate(-432.000000, -736.000000)" fill="#09C2E9">
            <g id="Group-21" transform="translate(330.000000, 735.000000)">
                <g id="Group-4" transform="translate(0.000000, 1.000000)">
                    <g id="google-play" transform="translate(102.000000, 0.000000)">
                        <path d="M4.18393401,0.361073563 C3.28404696,-0.127134458 2.22747031,-0.115846411 1.33333333,0.368128592 L11.8128487,9.85714286 L15.3333333,6.40158956 L4.18393401,0.361073563 Z" id="Path"></path>
                        <path d="M0.417983843,1.31428571 C0.152265543,1.73543417 0,2.21736695 0,2.72824463 L0,20.3064893 C0,20.8014472 0.138830348,21.2732493 0.389620653,21.6857143 L11.3333333,11.075957 L0.417983843,1.31428571 Z" id="Path"></path>
                        <path d="M20.5400603,9.04661573 L17.1466086,7.22857143 L13.3333333,10.9295398 L18.0065929,15.1142857 L20.541513,13.7560416 C21.4537937,13.2652119 22,12.3851036 22,11.4006235 C21.9985473,10.4161433 21.4537937,9.53603495 20.5400603,9.04661573 Z" id="Path"></path>
                        <path d="M12.220548,11.8285714 L1.33333333,22.5929143 C1.80578898,22.8594236 2.32415725,23 2.84548762,23 C3.34904537,23 3.85556521,22.874067 4.31913455,22.6207367 L16.6666667,15.8833212 L12.220548,11.8285714 Z" id="Path"></path>
                    </g>
                </g>
            </g>
        </g>
    </g>
</svg>