<?xml version="1.0" encoding="UTF-8"?>
<svg width="21px" height="26px" viewBox="0 0 21 26" version="1.1" xmlns="http://www.w3.org/2000/svg" xmlns:xlink="http://www.w3.org/1999/xlink">
    <!-- Generator: Sketch 52.6 (67491) - http://www.bohemiancoding.com/sketch -->
    <title>apple</title>
    <desc>Created with Sketch.</desc>
    <g id="website-" stroke="none" stroke-width="1" fill="none" fill-rule="evenodd">
        <g id="11" transform="translate(-628.000000, -734.000000)" fill="#09C2E9" fill-rule="nonzero" stroke="#09C2E9">
            <g id="Group-21" transform="translate(330.000000, 735.000000)">
                <g id="Group-3" transform="translate(207.000000, 0.000000)">
                    <g id="apple" transform="translate(92.000000, 0.000000)">
                        <path d="M15.8688451,12.752144 C15.8394044,9.71272502 18.278793,8.25505455 18.3877602,8.18263275 C17.0171251,6.11966598 14.8819879,5.83705688 14.1211316,5.80438504 C12.3040546,5.61515084 10.5755732,6.90472773 9.65338531,6.90472773 C8.73352168,6.90472773 7.31047661,5.83236938 5.80348442,5.86054123 C3.82293382,5.89082245 1.99674202,7.04502447 0.976934831,8.86944458 C-1.08081796,12.5420973 0.44996381,17.9828733 2.45558006,20.9614486 C3.43560123,22.4194472 4.60420721,24.0569768 6.13854374,23.9984769 C7.6160952,23.9378207 8.17483123,23.0150872 9.96119144,23.0150872 C11.7475061,23.0150872 12.2496849,23.9984769 13.8132799,23.9682894 C15.4032621,23.9379144 16.4105821,22.4824002 17.3838583,21.0199485 C18.5092602,19.3285126 18.9726557,17.6909361 19,17.6068893 C18.9646802,17.5902956 15.8995619,16.3825623 15.8688451,12.752144 Z M12.9307868,3.83254318 C13.7451469,2.81634104 14.2948137,1.40648302 14.1448756,0 C12.9718489,0.0491249527 11.5499888,0.803671101 10.7083755,1.81757637 C9.953216,2.71701301 9.29216656,4.1525585 9.46931232,5.53091655 C10.7788328,5.6360102 12.1155609,4.84644846 12.9307868,3.83254318 Z" id="Shape"></path>
                    </g>
                </g>
            </g>
        </g>
    </g>
</svg>