<?xml version="1.0" encoding="UTF-8"?>
<svg width="34px" height="22px" viewBox="0 0 34 22" version="1.1" xmlns="http://www.w3.org/2000/svg" xmlns:xlink="http://www.w3.org/1999/xlink">
    <!-- Generator: Sketch 52.6 (67491) - http://www.bohemiancoding.com/sketch -->
    <title>message</title>
    <desc>Created with Sketch.</desc>
    <g id="website-" stroke="none" stroke-width="1" fill="none" fill-rule="evenodd">
        <g id="9" transform="translate(-159.000000, -380.000000)" fill="#21262C" fill-rule="nonzero">
            <g id="message" transform="translate(159.000000, 380.000000)">
                <path d="M32.5992235,0 L1.40077653,0 C0.627140854,0 0,0.630876928 0,1.4091214 L0,20.5908786 C0,21.3691231 0.627140854,22 1.40077653,22 L32.5992235,22 C33.3728591,22 34,21.3691231 34,20.5908786 L34,1.4091214 C34,0.630876928 33.3728591,0 32.5992235,0 Z M1.40077653,1.10663984 L32.5992235,1.10663984 C32.7308671,1.10728538 32.8467429,1.19397217 32.8852459,1.32059021 L17,11.3024816 L1.1147541,1.32059021 C1.15325712,1.19397217 1.26913287,1.10728538 1.40077653,1.10663984 Z M1.10008628,2.58215962 L12.5263158,9.76056338 L1.10008628,18.8792757 L1.10008628,2.58215962 Z M32.8999137,20.583501 C32.8999137,20.7506036 32.7652448,20.8859826 32.5992235,20.8859826 L1.40077653,20.8859826 C1.23475518,20.8859826 1.10008628,20.7505114 1.10008628,20.583501 L1.10008628,20.288397 L13.5163934,10.4171697 L16.7066437,12.4238766 C16.885866,12.5375838 17.114134,12.5375838 17.2933563,12.4238766 L20.4836066,10.4171697 L32.8999137,20.288397 L32.8999137,20.583501 Z M32.8999137,18.8792757 L21.4443486,9.79007378 L32.8999137,2.64855801 L32.8999137,18.8792757 Z" id="Shape"></path>
            </g>
        </g>
    </g>
</svg>