<?xml version="1.0" encoding="UTF-8"?>
<svg width="24px" height="34px" viewBox="0 0 24 34" version="1.1" xmlns="http://www.w3.org/2000/svg" xmlns:xlink="http://www.w3.org/1999/xlink">
    <!-- Generator: Sketch 52.6 (67491) - http://www.bohemiancoding.com/sketch -->
    <title>placeholder (1)</title>
    <desc>Created with Sketch.</desc>
    <g id="website-" stroke="none" stroke-width="1" fill="none" fill-rule="evenodd">
        <g id="9" transform="translate(-159.000000, -458.000000)" fill="#21262C" fill-rule="nonzero">
            <g id="placeholder-(1)" transform="translate(159.000000, 458.000000)">
                <path d="M12.5,7 C10.0192143,7 8,9.01921429 8,11.5 C8,13.9807857 10.0192143,16 12.5,16 C14.9807857,16 17,13.9807857 17,11.5 C17,9.01921429 14.9807857,7 12.5,7 Z M12.5,14.7142857 C10.7276429,14.7142857 9.28571429,13.2723571 9.28571429,11.5 C9.28571429,9.72764286 10.7276429,8.28571429 12.5,8.28571429 C14.2723571,8.28571429 15.7142857,9.72764286 15.7142857,11.5 C15.7142857,13.2723571 14.2723571,14.7142857 12.5,14.7142857 Z" id="Shape"></path>
                <path d="M20.4870393,3.48773673 C18.2203978,1.23874573 15.2065532,0 12.0012143,0 C8.79524957,0 5.78203074,1.23874573 3.51538929,3.48773673 C-0.679336738,7.64917727 -1.20062672,15.4790438 2.38644915,20.2229121 L12.0012143,34 L21.601586,20.2421608 C25.2030553,15.4790438 24.6817653,7.64917727 20.4870393,3.48773673 Z M20.5865412,19.5162993 L12.0012143,31.8180689 L3.40211979,19.4970506 C0.148594417,15.1927973 0.614814152,8.12170133 4.40089388,4.36572493 C6.43098358,2.35144365 9.13005166,1.24185036 12.0012143,1.24185036 C14.8723769,1.24185036 17.571445,2.35144365 19.6021605,4.36572493 C23.3882402,8.12170133 23.8544599,15.1927973 20.5865412,19.5162993 Z" id="Shape"></path>
            </g>
        </g>
    </g>
</svg>