<?xml version="1.0" encoding="UTF-8"?>
<svg width="34px" height="34px" viewBox="0 0 34 34" version="1.1" xmlns="http://www.w3.org/2000/svg" xmlns:xlink="http://www.w3.org/1999/xlink">
    <!-- Generator: Sketch 52.6 (67491) - http://www.bohemiancoding.com/sketch -->
    <title>phone-call</title>
    <desc>Created with Sketch.</desc>
    <g id="website-" stroke="none" stroke-width="1" fill="none" fill-rule="evenodd">
        <g id="9" transform="translate(-159.000000, -548.000000)" fill="#21262C" fill-rule="nonzero">
            <g id="phone-call" transform="translate(159.000000, 548.000000)">
                <path d="M27.3264851,34 C25.9118585,34 24.2033281,33.6454874 22.324402,32.9364622 C18.205174,31.3834682 13.7234264,28.3140752 9.70483471,24.2955033 C5.6850994,20.2757878 2.61569128,15.7929187 1.06154611,11.6737109 C-0.350793321,7.92845673 -0.354224105,4.85448935 1.05354095,3.44787482 C1.25595721,3.24545955 1.46180425,3.02817763 1.67451286,2.80403418 C2.95876969,1.4534555 4.40999133,-0.0663743495 6.33351759,0.0022409938 C7.65894382,0.0571332684 8.94320065,0.880517388 10.2583345,2.51699333 C14.1442693,7.34980067 12.3922822,9.07204579 10.3646888,11.0687523 L10.0067437,11.4232649 C9.67510124,11.7549057 9.04841136,13.2907458 14.878457,19.1207628 C16.7813986,21.023695 18.4041594,22.4165865 19.7009958,23.2594116 C20.5175224,23.7900369 21.9778928,24.5928364 22.5771364,23.9935958 L22.9373688,23.6299345 C24.9317979,21.6069254 26.6540515,19.8606649 31.4834518,23.7431498 C33.1199358,25.0582772 33.9421804,26.3413841 33.9970729,27.669091 C34.0759809,29.5914642 32.5447077,31.0461095 31.1929788,32.3292164 C30.9699778,32.541924 30.7526948,32.74777 30.5502785,32.9490417 C29.8515422,33.6489182 28.7342502,34 27.3264851,34 Z M6.19628623,1.14354287 C4.82969058,1.14354287 3.59575192,2.44266004 2.503619,3.59196704 C2.28404882,3.82297203 2.07134021,4.04711548 1.86206239,4.25639228 C0.813386064,5.30391985 0.919740369,8.05653871 2.13195073,11.2711675 C3.63005976,15.2417087 6.60683672,19.5804856 10.5144997,23.4881294 C14.4210192,27.393486 18.7575302,30.3702483 22.7292345,31.8672064 C25.9438792,33.081698 28.6965116,33.184621 29.7429007,32.138237 C29.9521785,31.9289602 30.1763231,31.7162527 30.4073292,31.4978271 C31.5818009,30.3816842 32.9140887,29.1168747 32.8557654,27.713691 C32.8157396,26.7496454 32.1135725,25.7124101 30.7687051,24.6317185 C26.7443954,21.3953614 25.6190983,22.5378069 23.7527518,24.4304468 L23.3868015,24.7998261 C22.4947976,25.6929691 21.0458632,25.4951282 19.0788803,24.2165956 C17.7145718,23.3291705 16.0289133,21.8859611 14.0710792,19.9269931 C9.2325301,15.0896114 7.6852465,12.1288593 9.19936586,10.6113167 L9.56417256,10.2510861 C11.4613961,8.38474876 12.6061344,7.25831355 9.36861787,3.23173648 C8.28563371,1.88801934 7.24953693,1.18585567 6.28548661,1.14468646 C6.25575315,1.14354287 6.22601969,1.14354287 6.19628623,1.14354287 Z" id="Shape"></path>
            </g>
        </g>
    </g>
</svg>