<svg xmlns="http://www.w3.org/2000/svg" width="24" height="24" viewBox="0 0 24 24">
  <g id="Facebook_footer" data-name="Facebook footer" transform="translate(-24 -72)">
    <rect id="Rectangle_538" data-name="Rectangle 538" width="24" height="24" transform="translate(24 72)" fill="none"/>
    <path id="Path_1814" data-name="Path 1814" d="M26,78a4,4,0,0,1,4-4H42a4,4,0,0,1,4,4V90a4,4,0,0,1-4,4H30a4,4,0,0,1-4-4Zm4-2a2,2,0,0,0-2,2V90a2,2,0,0,0,2,2h6V85H35a1,1,0,0,1,0-2h1V81.5A3.5,3.5,0,0,1,39.5,78h.6a1,1,0,1,1,0,2h-.6A1.5,1.5,0,0,0,38,81.5V83h2.1a1,1,0,1,1,0,2H38v7h4a2,2,0,0,0,2-2V78a2,2,0,0,0-2-2Z" fill="#4b4b4b" fill-rule="evenodd"/>
  </g>
</svg>
