<?xml version="1.0" encoding="UTF-8"?>
<svg width="69px" height="67px" viewBox="0 0 69 67" version="1.1" xmlns="http://www.w3.org/2000/svg" xmlns:xlink="http://www.w3.org/1999/xlink">
    <!-- Generator: Sketch 52.6 (67491) - http://www.bohemiancoding.com/sketch -->
    <title>Group 6</title>
    <desc>Created with Sketch.</desc>
    <g id="onsurity-UI-Mockups" stroke="none" stroke-width="1" fill="none" fill-rule="evenodd">
        <g id="Artboard" transform="translate(-219.000000, -32.000000)">
            <g id="Group-6" transform="translate(219.000000, 32.000000)">
                <g id="Group-4">
                    <circle id="Oval" fill="#10A9E5" cx="30.5" cy="13.5" r="12.5"></circle>
                    <path d="M56.9295858,36 C56.338423,36 55.8591717,36.419438 55.8591717,36.9368203 C55.8591717,37.5927579 55.2494767,38.1263595 54.5,38.1263595 C53.750667,38.1263595 53.1408283,37.5927579 53.1408283,36.9368203 C53.1408283,36.4193123 52.661577,36 52.0704142,36 C51.4792513,36 51,36.419438 51,36.9368203 C51,38.625888 52.5702089,40 54.5,40 C56.4297911,40 58,38.6257622 58,36.9368203 C58,36.4191865 57.5207487,36 56.9295858,36 Z" id="Path" fill="#424242"></path>
                    <path d="M66.3645234,35.6138083 L63.5382188,34.7167701 C63.1762383,34.6018028 62.8909395,34.3155197 62.7751758,33.9508559 C62.1795117,32.0743928 61.280625,30.3127634 60.1034473,28.7147054 C59.5669453,27.9863124 58.9703379,27.2907673 58.3186113,26.628604 C58.7355762,24.8162342 58.962252,22.765117 58.932873,20.9930725 C58.8908262,18.4580514 58.3795254,16.9712218 57.3698613,16.4472596 C56.826082,16.1647152 55.1711602,15.3064 46.2136934,19.3691101 C46.0015723,19.4652499 45.8034668,19.5836889 45.6200508,19.7193529 C45.016166,19.5585857 44.3989395,19.409836 43.7779395,19.2763084 C43.7031445,19.2601516 43.6260586,19.2458641 43.5507246,19.2301079 C44.2765723,17.6590224 44.7004102,15.9526734 44.7800566,14.1911776 C44.8048535,13.6421122 44.3758945,13.1771692 43.8217383,13.1527336 C43.2690645,13.125494 42.7983281,13.5530493 42.773666,14.1021147 C42.6428086,16.9984614 41.4301875,19.7236258 39.3593789,21.7755441 C38.1220957,23.0014608 36.6733652,23.8919563 35.1293555,24.4527721 C32.4516973,24.0804972 29.7243105,24.0804972 27.0466523,24.4527721 C25.5025078,23.8919563 24.0539121,23.0014608 22.8166289,21.7755441 C20.6072813,19.586493 19.3904824,16.6759923 19.3904824,13.5801554 C19.3904824,10.484185 20.6072813,7.57381783 22.8166289,5.3847667 C25.0259766,3.19558203 27.9635977,1.98996152 31.0880039,1.98996152 C34.2124102,1.98996152 37.1500313,3.19558203 39.3593789,5.3847667 C40.2472148,6.26444639 40.9808789,7.26830673 41.5400215,8.3681734 C41.7894727,8.85902078 42.3933574,9.0566416 42.8886211,8.80934852 C43.3840195,8.5623225 43.5833379,7.96398542 43.3338867,7.47327157 C42.6785215,6.18352868 41.8191211,5.00755128 40.7796738,3.97751954 C38.1909609,1.41258826 34.7490469,0 31.0881387,0 C27.4272305,0 23.9853164,1.41258826 21.3966035,3.97751954 C18.8078906,6.54258434 17.3822051,9.95274519 17.3822051,13.5800219 C17.3822051,17.2072986 18.8078906,20.617593 21.3966035,23.1825242 C22.1433398,23.9224005 22.955707,24.5586595 23.8149727,25.0917016 C23.8152422,25.0917016 23.8155117,25.091568 23.8157813,25.091568 C23.1914121,25.2523352 22.5717598,25.4328645 21.9589805,25.6358264 C21.4329902,25.8100799 21.1491738,26.3736998 21.325043,26.8949915 C21.5007773,27.4161497 22.0698926,27.6973587 22.595748,27.5232388 C28.072084,25.7092666 34.1041934,25.7092666 39.5805293,27.5232388 C39.6861855,27.558223 39.793459,27.5747804 39.8989805,27.5747804 C40.3190449,27.5747804 40.7106738,27.311464 40.8512344,26.8949915 C41.0271035,26.3738334 40.7432871,25.8100799 40.2172969,25.6358264 C39.6045176,25.4328645 38.9848652,25.2522017 38.3604961,25.091568 C38.3607656,25.091568 38.3610352,25.0917016 38.3613047,25.0917016 C39.2207051,24.5586595 40.0329375,23.9224005 40.7796738,23.1825242 C41.4402949,22.527972 42.0234258,21.8131989 42.5297402,21.0535605 C42.8065488,21.106838 43.0813359,21.1626525 43.3520801,21.2208706 C43.7127129,21.2984501 44.0717285,21.3817713 44.4275098,21.4692319 C44.4163242,21.5124948 44.4048691,21.5556242 44.3955703,21.5995548 C43.905832,23.9022379 43.9376367,25.9388005 44.490041,27.65236 C44.9865176,29.1926006 45.8825742,30.4404158 47.1530098,31.3613555 C48.6503906,32.4466677 50.4581367,32.915483 52.0956738,32.915483 C53.3281055,32.915483 54.4643145,32.6497631 55.2987832,32.1814819 C56.2426816,31.651778 57.0334863,30.535621 57.6594727,28.8598499 C57.9488145,29.19447 58.2230625,29.5372353 58.481543,29.8881457 C59.5296152,31.3107486 60.3297188,32.8786294 60.8596172,34.5479912 C61.170791,35.5284842 61.9432676,36.3000066 62.9258438,36.6120605 L65.7521484,37.5090988 C66.4937637,37.7445079 66.9919922,38.4208251 66.9919922,39.1923475 L66.9919922,43.835769 C66.9919922,44.6072914 66.4937637,45.2836086 65.7521484,45.5190177 L61.1985527,46.9641867 C60.4700098,47.19559 59.853457,47.691645 59.462502,48.3611522 C57.6734883,51.424542 54.8607949,53.9595631 51.1020469,55.8958465 C50.667832,56.1197722 50.3670352,56.5202215 50.2764727,56.9947785 L48.8180391,64.6463094 C48.7777441,64.8571494 48.5913633,65.0100385 48.3747949,65.0100385 L43.6327969,65.0100385 C43.4162285,65.0100385 43.2298477,64.8570159 43.1895527,64.6463094 L42.3817676,60.4176244 C42.2227441,59.5856141 41.4351738,59.0329434 40.587498,59.1601952 C38.5448555,59.4662404 36.4400859,59.621266 34.3319473,59.621266 C32.7635449,59.621266 31.2152227,59.5346066 29.7297012,59.3635577 C28.9083047,59.2699549 28.1431055,59.824762 27.9896074,60.628331 L27.2219824,64.6463094 C27.1816875,64.8571494 26.9953066,65.0100385 26.7787383,65.0100385 L22.0367402,65.0100385 C21.8201719,65.0100385 21.633791,64.8570159 21.592957,64.6431047 L20.1886992,57.416325 C20.0982715,56.9507144 19.8031348,56.5548051 19.3784883,56.3300782 C12.9711914,52.9410147 9.58453125,47.2789112 9.58453125,39.9562588 C9.58453125,36.2564766 10.4014805,32.9849174 12.0126035,30.2321128 C13.5160488,27.6631757 15.7119199,25.5391525 18.539168,23.9187953 C19.0192031,23.643595 19.1832129,23.0349763 18.9055957,22.5592175 C18.6279785,22.0835923 18.0137168,21.9213562 17.5335469,22.196156 C12.051416,25.338327 8.74494141,30.1859122 7.83459961,36.3428689 L7.83459961,36.3427354 C7.73797266,36.3340561 7.64121094,36.3257774 7.54485352,36.3158964 C7.56237305,35.6515967 7.44108398,34.9812882 7.17694336,34.3307418 C6.59435156,32.8958545 5.39763281,31.8602146 4.12800586,31.6923704 C3.12750586,31.559644 2.17538672,31.9805229 1.51463086,32.8455146 C0.556582031,34.0998727 0.712775391,35.0925167 1.01235938,35.70434 C1.51813477,36.7369088 2.81821875,37.4673047 4.97568164,37.926506 C4.91638477,38.0145007 4.8511582,38.102896 4.77973242,38.1916918 C3.50498438,39.7757295 2.00315625,40.1259723 1.02799219,40.1589536 C0.457125,40.1780481 0,40.6321754 0,41.1981988 L0,41.2030058 C0,41.7612846 0.444591797,42.2166136 1.00750781,42.2421174 C1.07960742,42.2454556 1.15494141,42.2471914 1.233375,42.2471914 C2.46728906,42.2471914 4.44766992,41.7962688 6.35029102,39.4324301 C6.65068359,39.059354 6.89541797,38.6657147 7.08355078,38.2589897 C7.27303125,38.2802206 7.45509961,38.2983803 7.62948633,38.3144036 C7.62948633,38.3140031 7.62948633,38.313736 7.62962109,38.3133354 C7.59539063,38.8525198 7.57638867,39.3995823 7.57638867,39.9562588 C7.57638867,44.0993525 8.57325,47.793393 10.5390762,50.9362316 C12.3516738,53.8337801 14.9468555,56.2062981 18.255082,57.9904936 L19.6202578,65.0161808 C19.839791,66.1655862 20.8560586,66.9998665 22.0367402,66.9998665 L26.7787383,66.9998665 C27.9594199,66.9998665 28.9756875,66.1655862 29.1952207,65.0161808 L29.8892637,61.3831624 C31.3307168,61.5344491 32.8231113,61.6110939 34.3318125,61.6110939 C36.4018125,61.6110939 38.4693867,61.4682194 40.4844023,61.1862092 L41.2160449,65.0164478 C41.4357129,66.1658532 42.4519805,67 43.6325273,67 L48.3745254,67 C49.555207,67 50.5714746,66.1657197 50.7911426,65.0159137 L52.211168,57.5662765 C56.2228711,55.4644189 59.2467422,52.7033356 61.2005742,49.3576686 C61.3414043,49.1165178 61.5582422,48.9395937 61.8110625,48.8593436 L66.3645234,47.4141747 C67.940877,46.9135798 69,45.4756213 69,43.835502 L69,39.1920804 C69,37.5520947 67.940877,36.1141362 66.3645234,35.6138083 Z M56.773793,23.7890065 C56.3872852,27.0639039 55.3505332,29.8653125 54.3087949,30.4498963 C53.1247441,31.114463 50.3910234,31.242783 48.338543,29.7551523 C46.2836367,28.2657857 45.5997012,25.5874895 46.3604531,22.0097515 C46.3604531,22.009618 46.3604531,22.009618 46.3604531,22.009618 C46.4368652,21.6502953 46.6945371,21.3394431 47.0496445,21.1784088 C52.0769414,18.8982918 54.9753457,18.1525403 56.052123,18.1525403 C56.2146504,18.1525403 56.3356699,18.1694983 56.4162598,18.2007438 C56.7396973,18.5423073 57.1639395,20.4839318 56.773793,23.7890065 Z M2.81943164,34.8354761 C2.71552734,34.6231672 2.96080078,34.2499576 3.11632031,34.0461946 C3.36280664,33.7235919 3.58988672,33.6576293 3.76144336,33.6576293 C3.79769531,33.6576293 3.83152148,33.6605669 3.86251758,33.6647063 C4.32422461,33.7257284 4.97109961,34.2291273 5.31380859,35.0731552 C5.3945332,35.2718442 5.49938086,35.6009897 5.5239082,36.0114535 C4.13380078,35.726105 3.05378906,35.3147066 2.81943164,34.8354761 Z" id="Shape" fill="#424242" fill-rule="nonzero"></path>
                    <path d="M31.7572737,12.8902082 L31.7572737,9.42455414 C33.0044761,9.50994773 33.4678196,10.0562328 33.8953544,10.0562328 C34.4299084,10.0562328 34.6793489,9.40752741 34.6793489,9.08310975 C34.6793489,8.2464605 32.968803,7.88798938 31.7572737,7.85380595 L31.7572737,7.39265455 C31.7572737,7.18781391 31.4899288,7 31.2227196,7 C30.9197016,7 30.7059342,7.18781391 30.7059342,7.39265455 L30.7059342,7.88772943 C29.0132926,8.05851661 27.3206511,8.91219259 27.3206511,11.0634092 C27.3206511,13.2488093 29.1024076,13.8634612 30.7059342,14.4097463 L30.7059342,18.4219454 C28.8885046,18.2853416 28.407528,17.0902212 27.819532,17.0902212 C27.3740929,17.0902212 27,17.653663 27,18.0634742 C27,18.8999935 28.4966429,20.0439037 30.7059342,20.0780871 L30.7059342,20.6073454 C30.7059342,20.8121861 30.9198372,21 31.2227196,21 C31.4900644,21 31.7572737,20.8121861 31.7572737,20.6073454 L31.7572737,20.026877 C33.681587,19.7706962 35,18.6097593 35,16.5097528 C35,14.1878789 33.3073584,13.4364933 31.7572737,12.8902082 Z M30.8128179,12.5659205 C29.8684978,12.2244762 29.1024076,11.866005 29.1024076,10.892882 C29.1024076,10.0050226 29.815056,9.57818462 30.8128179,9.45873757 L30.8128179,12.5659205 Z M31.6502543,18.3877619 L31.6502543,14.7853741 C32.5232282,15.1438452 33.2181078,15.6218934 33.2181078,16.6974367 C33.2181078,17.6708197 32.6123432,18.2171047 31.6502543,18.3877619 Z" id="Shape" fill="#FFFFFF" fill-rule="nonzero"></path>
                </g>
            </g>
        </g>
    </g>
</svg>