<?xml version="1.0" encoding="UTF-8"?>
<svg width="57px" height="67px" viewBox="0 0 57 67" version="1.1" xmlns="http://www.w3.org/2000/svg" xmlns:xlink="http://www.w3.org/1999/xlink">
    <!-- Generator: Sketch 52.6 (67491) - http://www.bohemiancoding.com/sketch -->
    <title>Group 2</title>
    <desc>Created with Sketch.</desc>
    <g id="onsurity-UI-Mockups" stroke="none" stroke-width="1" fill="none" fill-rule="evenodd">
        <g id="Artboard" transform="translate(-40.000000, -32.000000)">
            <g id="Group-2" transform="translate(40.000000, 32.000000)">
                <g id="Group">
                    <path d="M22.9755656,7.77921894 C22.9760199,7.78194998 22.9764757,7.78436187 22.9769327,7.78645253 C22.9755617,7.78018055 22.9741364,7.77398886 22.9726591,7.76787694 Z M22.7206415,7.39572591 C22.7164065,7.39370501 22.7122672,7.39189072 22.7082376,7.3902799 C22.719942,7.39495865 22.733874,7.39969792 22.7499715,7.40444908 Z M22.9565768,7.44697119 C23.0233407,7.4571142 23.100752,7.46651973 23.1880334,7.47457919 C23.6557879,7.51777108 24.1307027,7.51886022 25.4536357,7.49463003 C26.2205361,7.48058386 26.6198485,7.47605019 27.0870339,7.47957135 C27.9846154,7.48633639 28.7356827,7.52797244 29.4113889,7.62051815 C31.4063407,7.89374968 33.2152181,9.34596518 33.2727865,10.678651 C33.4005427,13.6361571 33.4005427,20.6242338 33.273552,27.5881751 C33.1278411,35.5786971 33.1559598,46.3532615 33.2506509,46.7864525 L33.2735668,46.9825963 C33.2736036,46.9847122 33.2736036,46.9847122 33.2737877,46.9952917 C33.2740455,47.0101029 33.2740455,47.0101029 33.2744507,47.0333776 C33.2754819,47.0926224 33.2754819,47.0926224 33.2771024,47.1857213 C33.2812273,47.4227005 33.2812273,47.4227005 33.2877094,47.7950963 C33.3042091,48.743013 33.3042091,48.743013 33.3301372,50.2325963 C33.3922912,53.8033742 33.3959121,54.0113948 33.4827452,59 L52,59 C54.209139,59 56,57.209139 56,55 L56,5 C56,2.790861 54.209139,1 52,1 L26.9390132,1 C24.7371959,1 22.949383,2.77944444 22.9390573,4.98123707 C22.9336206,6.13965974 22.9423678,6.99896983 22.9565768,7.44697119 Z" id="Rectangle" stroke="#424242" stroke-width="2" fill-opacity="0" fill="#FFFFFF"></path>
                    <path d="M55,8 L32,8" id="Line" stroke="#424242" stroke-width="2" stroke-linecap="square"></path>
                    <path d="M55.8548988,47 L33.8349831,47 C33.9242131,42.5585547 33.9242131,37.8793086 33.8349831,32.9622617 C33.7011382,25.5866914 34.4646167,12.5012763 33.8349831,10.4091005 C33.5046798,9.31155334 32.6742004,8.83918149 32.1283518,8.50819848 C31.633688,8.20825217 31.4729232,8 30.2756942,8" id="Line" stroke="#424242" stroke-width="2" stroke-linecap="square"></path>
                    <circle id="Oval" stroke="#424242" stroke-width="2" fill-opacity="0" fill="#FFFFFF" cx="40" cy="53" r="3"></circle>
                    <g id="smartphone" transform="translate(0.000000, 7.000000)" fill="#424242" fill-rule="nonzero">
                        <path d="M17.5,49 C15.294,49 13.5,50.794 13.5,53 C13.5,55.206 15.294,57 17.5,57 C19.706,57 21.5,55.206 21.5,53 C21.5,50.794 19.706,49 17.5,49 Z M17.5,55 C16.397,55 15.5,54.103 15.5,53 C15.5,51.897 16.397,51 17.5,51 C18.603,51 19.5,51.897 19.5,53 C19.5,54.103 18.603,55 17.5,55 Z" id="Shape"></path>
                        <path d="M30.095,0 L4.905,0 C2.476,0 0.5,1.977 0.5,4.405 L0.5,55.595 C0.5,58.024 2.476,60 4.905,60 L30.094,60 C32.523,60 34.499,58.023 34.499,55.595 L34.499,4.405 C34.5,1.977 32.524,0 30.095,0 Z M4.905,2 L30.094,2 C31.421,2 32.5,3.079 32.5,4.405 L32.5,6 L2.5,6 L2.5,4.405 C2.5,3.079 3.579,2 4.905,2 Z M2.5,8 L32.5,8 L32.5,46 L2.5,46 L2.5,8 Z M30.095,58 L4.905,58 C3.579,58 2.5,56.921 2.5,55.595 L2.5,48 L32.5,48 L32.5,55.595 C32.5,56.921 31.421,58 30.095,58 Z" id="Shape"></path>
                    </g>
                </g>
                <rect id="Rectangle" fill="#10A9E5" x="2.5" y="15" width="29.8" height="38"></rect>
            </g>
        </g>
    </g>
</svg>