<?xml version="1.0" encoding="UTF-8"?>
<svg width="66px" height="67px" viewBox="0 0 66 67" version="1.1" xmlns="http://www.w3.org/2000/svg" xmlns:xlink="http://www.w3.org/1999/xlink">
    <!-- Generator: Sketch 52.6 (67491) - http://www.bohemiancoding.com/sketch -->
    <title>Group 3</title>
    <desc>Created with Sketch.</desc>
    <g id="onsurity-UI-Mockups" stroke="none" stroke-width="1" fill="none" fill-rule="evenodd">
        <g id="Artboard" transform="translate(-125.000000, -32.000000)">
            <g id="Group-3" transform="translate(125.000000, 32.000000)">
                <path d="M34.4919309,0 C17.144068,0 3,14.1050933 3,31.4063509 C3,32.3980228 3,33.2799273 3.11060588,34.2715992 L5.32056594,34.0509886 C5.20996007,33.169622 5.20996007,32.2877175 5.20996007,31.4063509 C5.20996007,15.3173758 18.3591146,2.20395445 34.4919309,2.20395445 C50.6247473,2.20395445 63.7739018,15.3173758 63.7739018,31.4063509 C63.7739018,47.16441 51.2878432,60.0577587 35.596911,60.6087473 L38.0280828,58.1841822 L36.4812186,56.6415217 L31.2875967,61.8210298 L36.4812186,67 L38.0280828,65.4573395 L35.3762386,62.8127017 C52.8347074,62.2617131 66.5363519,47.8257039 65.9838619,30.5249842 C65.4313719,13.5541047 51.5085156,0 34.4919309,0 Z" id="Path" fill="#424242"></path>
                <path d="M55,13 L15,13 L15,33 L55,33 L55,13 Z M52.7777778,30.7777778 L17.2222222,30.7777778 L17.2222222,15.2222222 L52.7777778,15.2222222 L52.7777778,30.7777778 Z" id="Shape" fill="#10A9E5" fill-rule="nonzero"></path>
                <path d="M35.5,28 C37.9752197,28 40,25.9752197 40,23.5 C40,21.0247803 37.9752197,19 35.5,19 C33.0253295,19 31,21.0247803 31,23.5 C31,25.9752197 33.0253295,28 35.5,28 Z M35.5,21.25 C36.7376098,21.25 37.75,22.2623902 37.75,23.5 C37.75,24.7376098 36.7376098,25.75 35.5,25.75 C34.2623902,25.75 33.25,24.7376098 33.25,23.5 C33.25,22.2623902 34.2623902,21.25 35.5,21.25 Z" id="Shape" fill="#10A9E5" fill-rule="nonzero"></path>
                <polygon id="Path" fill="#10A9E5" points="22 20 24 20 24 18 20 18 20 22 22 22"></polygon>
                <polygon id="Path" fill="#10A9E5" points="24 26 22 26 22 24 20 24 20 28 24 28"></polygon>
                <polygon id="Path" fill="#10A9E5" points="50 24 48 24 48 26 46 26 46 28 50 28"></polygon>
                <polygon id="Path" fill="#10A9E5" points="48 22 50 22 50 18 46 18 46 20 48 20"></polygon>
                <polygon id="Path" fill="#10A9E5" points="25 22 28 22 28 24 25 24"></polygon>
                <polygon id="Path" fill="#10A9E5" points="42 22 45 22 45 24 42 24"></polygon>
                <polygon id="Path" fill="#424242" points="7 47 9 47 9 50 7 50"></polygon>
                <path d="M55,44.9341415 C55,42.7282072 53.1303222,40.8534861 50.9303222,40.8534861 C50.6,40.8534861 50.1601074,40.8534861 49.8303222,40.9633521 L36.5202148,44.8237371 C36.4101074,44.8237371 36.1898926,44.9341415 36.0803222,44.8237371 L33,44.2722535 C35.0898926,43.0594204 35.8601074,40.4118685 34.7601074,38.3163387 C33.9898926,36.8826967 32.5601074,36 30.9101074,36 L17.05,36 C16.5,36 15.95,36.1104044 15.4,36.4416176 L13.2,37.8752595 L13.2,36.2208088 L0,36.2208088 L0,54.97125 L13.2,54.97125 L13.2,52.2138322 L24.0898926,56.7361051 C24.75,57.0667799 25.6303222,57.0667799 26.2898926,56.8465095 L52.0303222,48.7945264 C53.7898926,48.3534472 55,46.8094009 55,44.9341415 Z M11,52.7653158 L2.2,52.7653158 L2.2,38.426743 L6.6,38.426743 L6.6,45.0445458 L8.8,45.0445458 L8.8,38.426743 L11,38.426743 L11,52.7653158 Z M25.7398926,54.7504413 C25.5202148,54.8608457 25.1898926,54.8608457 24.9702148,54.7504413 L13.2,49.7870892 L13.2,40.4118685 L16.5,38.5371474 C16.6101074,38.426743 16.8303222,38.426743 17.05,38.426743 L30.8,38.426743 C32.0101074,38.426743 33,39.4193058 33,40.6326773 C33,41.8460488 32.0101074,42.8386116 30.8,42.8386116 L23.1,42.8386116 L23.1,43.9415787 L22.8803222,45.0445458 L35.5303222,47.1400757 C35.9702148,47.2504801 36.5202148,47.1400757 36.9601074,47.0296713 L50.2702148,43.1692864 C51.2601074,42.8386116 52.25,43.5004995 52.5803222,44.4930623 C52.9101074,45.485625 52.3601074,46.4781878 51.3702148,46.8094009 L25.7398926,54.7504413 Z" id="Shape" fill="#424242" fill-rule="nonzero"></path>
            </g>
        </g>
    </g>
</svg>