<svg xmlns="http://www.w3.org/2000/svg" width="24" height="24" viewBox="0 0 24 24">
  <g id="Linkedin_footer" data-name="Linkedin footer" transform="translate(-264 -72)">
    <rect id="Rectangle_535" data-name="Rectangle 535" width="24" height="24" transform="translate(264 72)" fill="none"/>
    <path id="Path_1811" data-name="Path 1811" d="M270,74a4,4,0,0,0-4,4V90a4,4,0,0,0,4,4h12a4,4,0,0,0,4-4V78a4,4,0,0,0-4-4Zm-2,4a2,2,0,0,1,2-2h12a2,2,0,0,1,2,2V90a2,2,0,0,1-2,2H270a2,2,0,0,1-2-2Zm5,5a1,1,0,0,0-2,0v6a1,1,0,0,0,2,0Zm.5-3.5A1.5,1.5,0,1,1,272,78,1.5,1.5,0,0,1,273.5,79.5ZM276,82a1,1,0,0,1,.82.428A3.508,3.508,0,0,1,278.5,82a3.593,3.593,0,0,1,3.5,3.571V89a1,1,0,0,1-2,0V85.57A1.6,1.6,0,0,0,278.5,84a1.76,1.76,0,0,0-1.5.963V89a1,1,0,0,1-2,0V83A1,1,0,0,1,276,82Z" fill="#4b4b4b" fill-rule="evenodd"/>
  </g>
</svg>
