<?xml version="1.0" encoding="UTF-8"?>
<svg width="29px" height="24px" viewBox="0 0 29 24" version="1.1" xmlns="http://www.w3.org/2000/svg" xmlns:xlink="http://www.w3.org/1999/xlink">
    <!-- Generator: Sketch 52.6 (67491) - http://www.bohemiancoding.com/sketch -->
    <title>twitter icon</title>
    <desc>Created with Sketch.</desc>
    <g id="Page-1" stroke="none" stroke-width="1" fill="none" fill-rule="evenodd" stroke-linecap="round" stroke-linejoin="round">
        <g id="Desktop-HD" transform="translate(-1243.000000, -49.000000)" stroke="#21262C" stroke-width="2">
            <g id="twitter-icon" transform="translate(1244.000000, 50.000000)">
                <path d="M27,0.413533835 C25.8247452,1.22359885 24.523496,1.84316861 23.1463636,2.24838346 C21.6323503,0.547295325 19.192545,-0.0492388522 17.0371,0.754664081 C14.881655,1.55856701 13.4690731,3.59190217 13.5,5.84612782 L13.5,7.04537594 C9.11945229,7.15636923 4.97294016,5.11694959 2.45454545,1.61278195 C2.45454545,1.61278195 -2.45454545,12.406015 8.59090909,17.2030075 C6.06337474,18.879516 3.05241985,19.7201446 -2.66453526e-14,19.6015038 C11.0454545,25.5977444 24.5454545,19.6015038 24.5454545,5.81015038 C24.5443244,5.47610417 24.511456,5.14288201 24.4472727,4.81477444 C25.6998311,3.6077229 26.5837427,2.08374203 27,0.413533835 Z" id="Path"></path>
            </g>
        </g>
    </g>
</svg>